PathFileType	4	(X/Y/Z)	D:\TRACE\v60_Jaco2_6-2-23\JustBodyDRS_Motion3_7-v60.trc
DataRate	CameraRate	NumFrames	NumMarkers	Units	OrigDataRate	OrigDataStartFrame	OrigNumFrames
100.00	100.00	      24	9	mm	100.00	6126	      7000
Frame#	Time	front left toe			Front right toe			aft left toe			aft right toe			Arm			FL body			FR body			AL Body			AR Body			
		X1	Y1	Z1	X2	Y2	Z2	X3	Y3	Z3	X4	Y4	Z4	X5	Y5	Z5	X6	Y6	Z6	X7	Y7	Z7	X8	Y8	Z8	X9	Y9	Z9	

6126	61.250	-144.81602	21.27450	-211.75786	236.22470	84.27630	-223.32056	-137.47180	60.62469	402.67279	231.80637	0.20202	408.22247	76.73418	1185.33142	-256.56213	-33.99977	547.82526	-385.37830	124.93053	545.11963	-386.06366	-21.83132	525.59808	558.67395	130.56439	514.54974	558.13434	
6127	61.260	-144.76683	21.20536	-211.76195	234.38771	74.74259	-223.81718	-137.34639	51.07138	402.52600	231.75931	0.08537	408.16339	76.31417	1185.37024	-256.68085	-34.24807	547.92206	-385.51883	124.50069	545.24695	-386.57288	-21.40991	525.38116	558.51263	130.85703	514.41266	557.86829	
6128	61.270	-144.77315	21.28304	-211.80438	235.63799	66.90842	-223.68739	-137.93195	43.59747	402.10205	231.79449	0.12935	408.09473	75.82736	1185.42310	-256.83350	-34.66304	547.89044	-385.80960	124.21699	545.21155	-386.84433	-20.90608	525.22913	558.38513	131.41214	514.39502	557.64789	
6129	61.280	-145.89586	22.36352	-212.28879	235.17857	59.10500	-223.76646	-137.82967	35.50081	401.84589	231.76683	0.13728	408.14063	75.35728	1185.48120	-257.06772	-34.90969	547.72101	-385.95065	123.94703	545.12012	-387.05875	-20.51553	525.12659	558.16083	131.25914	514.53735	557.27277	
6130	61.290	-145.94225	22.26093	-212.29424	234.86218	51.82548	-223.75984	-137.58829	28.06164	401.77817	231.77318	0.08038	407.98062	74.92175	1185.38220	-257.37155	-35.25659	547.55353	-386.10968	122.83341	545.20416	-387.26352	-20.14312	525.16315	558.06976	132.55238	514.27045	557.08081	
6131	61.300	-146.04179	22.23225	-212.23839	235.62352	46.20494	-223.43756	-137.76085	21.84046	401.74017	231.77345	0.11291	407.97989	74.52485	1185.17407	-257.67078	-35.60287	547.37537	-386.20731	122.48468	545.15240	-387.61923	-19.89216	525.35834	558.26422	132.63393	514.28772	556.79492	
6132	61.310	-146.08803	22.24588	-212.24387	236.42932	40.16631	-223.51488	-137.14944	15.22967	401.89041	231.78474	0.16080	407.92590	74.21313	1185.00586	-257.91666	-35.74519	547.26910	-386.37177	122.25069	544.98224	-387.46967	-19.60453	525.35272	557.84808	132.91028	514.40753	556.47412	
6133	61.320	-146.11743	22.26218	-212.24455	236.04771	33.45500	-224.29173	-137.07875	9.21720	401.00400	231.72513	0.18975	407.95129	73.99440	1185.05103	-258.23383	-35.86359	547.22528	-386.47952	122.09743	545.01923	-387.76498	-19.39753	525.58685	557.57892	133.35497	514.62964	556.19678	
6134	61.330	-146.12901	22.30910	-212.20099	235.52307	27.50107	-225.18109	-137.73880	5.45613	399.41019	231.71661	0.22819	407.85507	73.55035	1185.30334	-258.61374	-36.03323	547.23590	-386.67871	121.90348	545.27692	-388.48871	-19.04078	525.57990	557.26410	133.69968	514.68170	556.06592	
6135	61.340	-146.06049	22.19248	-212.26407	236.61487	26.15920	-225.53397	-138.20119	2.92406	399.54645	231.65923	0.26079	407.86478	72.80956	1185.48401	-259.09647	-36.41964	547.27594	-387.00699	121.54713	545.32452	-388.91577	-18.42133	526.23016	556.93091	134.00456	515.22058	555.76215	
6136	61.350	-146.06927	22.29026	-212.13087	236.86475	26.00561	-226.81256	-138.76717	3.60685	399.73315	231.64763	0.46927	408.03140	72.26066	1185.68970	-259.56967	-37.06015	547.57910	-387.29471	121.58469	545.52411	-389.40906	-18.04580	527.34448	557.00043	134.44658	516.39642	555.33258	
6137	61.360	-145.97023	22.49961	-212.04347	237.00909	25.53994	-226.32422	-138.05234	4.91183	400.01218	231.46451	0.46998	408.07770	71.85547	1186.32629	-260.49371	-37.43229	548.16742	-387.33740	121.53533	546.34052	-389.37463	-17.84606	528.41925	556.67145	134.62471	517.86926	555.09412	
6138	61.370	-145.65642	24.32324	-212.99345	236.86623	25.13304	-225.89709	-137.84027	3.70359	400.29868	231.47919	1.77687	406.92474	71.89824	1187.22070	-261.32672	-37.96828	549.31659	-387.73657	120.81921	547.69257	-389.77957	-17.49677	529.33044	556.85846	134.93159	518.66479	554.58575	
6139	61.380	-141.87926	28.04716	-211.29945	237.32643	25.21527	-226.49292	-137.93069	2.69678	399.64221	229.75888	5.24753	409.36859	70.50481	1188.59363	-262.18738	-38.24043	550.58740	-387.75024	119.62533	549.22333	-390.24213	-16.88274	529.36652	556.16974	135.48419	518.72351	554.24689	
6140	61.390	-138.17807	33.38827	-208.21696	235.90419	25.24215	-226.71138	-138.16588	2.73687	399.78162	225.67029	9.89840	412.29855	69.04528	1189.48499	-261.97769	-38.55709	551.69403	-388.17929	119.81847	550.15210	-391.01492	-16.49271	529.39551	555.74103	135.85591	518.70038	553.84698	
6141	61.400	-136.43434	43.99890	-208.33423	235.81363	24.88654	-226.86449	-137.85616	2.56578	399.45126	221.71794	19.73608	412.06137	67.78978	1190.72327	-261.31177	-38.97886	551.95630	-388.63400	119.80199	550.57355	-391.47092	-16.39229	529.32703	555.43719	135.97353	518.82373	553.45844	
6142	61.410	-136.10074	53.71502	-208.30049	236.99982	24.72192	-226.85213	-137.89110	2.62112	399.55679	220.51013	31.03662	411.81903	66.67937	1191.30750	-260.71692	-39.08640	551.90582	-389.06705	119.73995	550.67725	-391.81979	-16.52187	529.39240	555.14685	135.56895	519.34088	552.76965	
6143	61.420	-137.64067	67.10477	-210.68707	237.24597	24.69899	-226.63560	-138.07228	2.61307	399.65277	221.38577	43.61559	409.74615	65.71938	1191.09949	-260.59894	-39.03162	551.86139	-389.39050	119.82561	550.73285	-392.01443	-16.79756	529.41290	555.06879	135.11591	519.21777	552.52295	
6144	61.430	-138.60318	79.40643	-212.17676	235.84035	24.48855	-226.47910	-138.23456	2.55038	399.67242	224.84337	57.02966	407.70087	65.62949	1190.41052	-260.84183	-38.86735	551.82159	-389.58905	119.97614	550.71051	-392.18091	-16.88619	528.80658	554.69690	135.20872	518.53986	552.35028	
6145	61.440	-140.18599	93.12541	-214.11865	235.79477	24.29029	-226.60645	-138.69991	2.71841	399.68390	227.94894	69.78631	405.56223	65.92905	1189.89160	-261.27234	-38.79891	551.67328	-389.77393	120.06364	550.63318	-392.33139	-17.59316	527.85315	554.26526	134.70590	517.81927	552.09479	
6146	61.450	-141.40959	105.43580	-215.23552	235.82866	24.13720	-226.63591	-138.81218	2.63325	399.74194	229.51320	82.00711	403.72867	66.84394	1189.52551	-261.26825	-38.62007	551.27356	-389.98724	120.16882	550.42535	-392.41443	-18.09702	527.49139	554.01532	134.26942	517.53052	552.02502	
6147	61.460	-142.25121	117.43837	-216.76399	235.79587	24.00507	-226.61723	-138.93459	2.58522	399.76904	231.31406	94.47610	402.72366	67.28872	1189.26489	-261.15814	-38.47604	550.76349	-390.08414	120.14615	550.20233	-392.68399	-18.42834	527.30615	553.80237	134.20657	517.36530	551.90320	
6148	61.470	-142.58115	128.71147	-217.78601	235.80742	24.03075	-226.55716	-138.88470	2.12377	399.49869	230.73523	105.67228	401.28278	67.15112	1189.04272	-261.04660	-38.43166	550.38916	-390.29486	120.10411	549.59869	-392.74976	-18.80707	527.46643	553.67523	133.70473	517.41956	551.86475	
6149	61.480	-143.36456	138.73709	-218.76051	235.71785	24.05962	-226.52917	-139.11378	2.17421	399.39215	230.49161	116.67619	400.69315	66.64254	1188.79333	-261.25769	-38.39492	549.90320	-390.49564	119.66919	549.14990	-392.58917	-19.23355	527.55054	553.47864	133.38792	517.46014	551.83209	
